<mxfile host="app.diagrams.net" modified="2022-11-27T06:08:51.265Z" agent="5.0 (Windows NT 10.0; Win64; x64) AppleWebKit/537.36 (KHTML, like Gecko) Chrome/107.0.0.0 Safari/537.36" etag="QmaCeSwAgRyacxULueXG" version="20.6.0" type="github">
  <diagram id="YlhYknXqT-UUJeO-SaRu" name="Page-1">
    <mxGraphModel dx="733" dy="519" grid="1" gridSize="10" guides="1" tooltips="1" connect="1" arrows="1" fold="1" page="1" pageScale="1" pageWidth="850" pageHeight="1100" math="0" shadow="0">
      <root>
        <mxCell id="0" />
        <mxCell id="1" parent="0" />
        <mxCell id="zkV0uyZ5jE0HPaSaKTqn-1" value="Customer" style="rounded=0;whiteSpace=wrap;html=1;" vertex="1" parent="1">
          <mxGeometry x="60" y="50" width="140" height="30" as="geometry" />
        </mxCell>
        <mxCell id="zkV0uyZ5jE0HPaSaKTqn-2" value="Order&amp;nbsp;" style="rounded=0;whiteSpace=wrap;html=1;" vertex="1" parent="1">
          <mxGeometry x="330" y="480" width="160" height="40" as="geometry" />
        </mxCell>
        <mxCell id="zkV0uyZ5jE0HPaSaKTqn-4" value="Cart" style="rounded=0;whiteSpace=wrap;html=1;" vertex="1" parent="1">
          <mxGeometry x="540" y="100" width="160" height="40" as="geometry" />
        </mxCell>
        <mxCell id="zkV0uyZ5jE0HPaSaKTqn-9" value="OrderMenu&lt;br&gt;Join" style="rhombus;whiteSpace=wrap;html=1;" vertex="1" parent="1">
          <mxGeometry x="370" y="300" width="80" height="80" as="geometry" />
        </mxCell>
        <mxCell id="zkV0uyZ5jE0HPaSaKTqn-10" value="" style="endArrow=none;html=1;rounded=0;exitX=0.5;exitY=0;exitDx=0;exitDy=0;entryX=0.5;entryY=1;entryDx=0;entryDy=0;" edge="1" parent="1" source="zkV0uyZ5jE0HPaSaKTqn-2" target="zkV0uyZ5jE0HPaSaKTqn-9">
          <mxGeometry width="50" height="50" relative="1" as="geometry">
            <mxPoint x="310" y="300" as="sourcePoint" />
            <mxPoint x="360" y="250" as="targetPoint" />
          </mxGeometry>
        </mxCell>
        <mxCell id="zkV0uyZ5jE0HPaSaKTqn-11" value="" style="endArrow=none;html=1;rounded=0;entryX=0;entryY=0.5;entryDx=0;entryDy=0;exitX=0.5;exitY=0;exitDx=0;exitDy=0;" edge="1" parent="1" source="zkV0uyZ5jE0HPaSaKTqn-9">
          <mxGeometry width="50" height="50" relative="1" as="geometry">
            <mxPoint x="310" y="300" as="sourcePoint" />
            <mxPoint x="540" y="120" as="targetPoint" />
            <Array as="points">
              <mxPoint x="400" y="120" />
            </Array>
          </mxGeometry>
        </mxCell>
        <mxCell id="zkV0uyZ5jE0HPaSaKTqn-12" value="food_type" style="rhombus;whiteSpace=wrap;html=1;" vertex="1" parent="1">
          <mxGeometry x="90" y="200" width="80" height="80" as="geometry" />
        </mxCell>
        <mxCell id="zkV0uyZ5jE0HPaSaKTqn-14" value="" style="endArrow=none;html=1;rounded=0;exitX=0.5;exitY=1;exitDx=0;exitDy=0;" edge="1" parent="1" source="zkV0uyZ5jE0HPaSaKTqn-1" target="zkV0uyZ5jE0HPaSaKTqn-12">
          <mxGeometry width="50" height="50" relative="1" as="geometry">
            <mxPoint x="350" y="290" as="sourcePoint" />
            <mxPoint x="400" y="240" as="targetPoint" />
          </mxGeometry>
        </mxCell>
        <mxCell id="zkV0uyZ5jE0HPaSaKTqn-15" value="Restaurant" style="rounded=0;whiteSpace=wrap;html=1;" vertex="1" parent="1">
          <mxGeometry x="50" y="400" width="120" height="60" as="geometry" />
        </mxCell>
        <mxCell id="zkV0uyZ5jE0HPaSaKTqn-16" value="" style="endArrow=none;html=1;rounded=0;entryX=0.5;entryY=1;entryDx=0;entryDy=0;exitX=0.648;exitY=-0.047;exitDx=0;exitDy=0;exitPerimeter=0;" edge="1" parent="1" source="zkV0uyZ5jE0HPaSaKTqn-15" target="zkV0uyZ5jE0HPaSaKTqn-12">
          <mxGeometry width="50" height="50" relative="1" as="geometry">
            <mxPoint x="280" y="330" as="sourcePoint" />
            <mxPoint x="380" y="230" as="targetPoint" />
          </mxGeometry>
        </mxCell>
        <mxCell id="zkV0uyZ5jE0HPaSaKTqn-17" value="" style="endArrow=none;html=1;rounded=0;exitX=0.5;exitY=1;exitDx=0;exitDy=0;entryX=0;entryY=0.5;entryDx=0;entryDy=0;" edge="1" parent="1" source="zkV0uyZ5jE0HPaSaKTqn-15" target="zkV0uyZ5jE0HPaSaKTqn-2">
          <mxGeometry width="50" height="50" relative="1" as="geometry">
            <mxPoint x="330" y="380" as="sourcePoint" />
            <mxPoint x="110" y="580" as="targetPoint" />
            <Array as="points">
              <mxPoint x="110" y="500" />
            </Array>
          </mxGeometry>
        </mxCell>
      </root>
    </mxGraphModel>
  </diagram>
</mxfile>
